<svg width="24" height="24" viewBox="0 0 24 24" fill="none" xmlns="http://www.w3.org/2000/svg">
<path fill-rule="evenodd" clip-rule="evenodd" d="M20.1922 4.27059C19.8953 2.8608 18.6401 1.93191 17.2117 2.00391C15.8512 2.07235 13.7317 2.23058 10.7534 2.59236C7.77565 2.95369 5.68009 3.30747 4.34319 3.56614C2.93829 3.83858 1.94585 5.04259 2.00229 6.4826C2.0214 6.97327 2.05385 7.56305 2.1054 8.25638C2.50407 6.72438 3.84052 5.64526 5.4232 5.53593C6.81298 5.43948 9.10455 5.33326 12.4446 5.33326C15.7846 5.33326 18.0761 5.43992 19.4659 5.53593C19.8117 5.55965 20.1525 5.63084 20.4788 5.74748C20.3763 5.17859 20.2807 4.68629 20.1922 4.27059ZM12.4446 22C9.1281 22 6.86231 21.8942 5.49964 21.8C4.2463 21.7133 3.23296 20.7751 3.10852 19.5004C2.99874 18.3782 2.88896 16.6484 2.88896 14.2222C2.88896 11.796 2.99874 10.0662 3.10852 8.94394C3.23296 7.66927 4.2463 6.7306 5.49964 6.64437C6.86187 6.55015 9.1281 6.44437 12.4446 6.44437C15.761 6.44437 18.0268 6.55015 19.3895 6.64437C20.6428 6.73104 21.6562 7.66927 21.7806 8.94394C21.8904 10.0662 22.0002 11.796 22.0002 14.2222C22.0002 16.6484 21.8904 18.3782 21.7806 19.5004C21.6562 20.7751 20.6428 21.7138 19.3895 21.8C18.0273 21.8942 15.761 22 12.4446 22ZM6.22231 9.5555C6.0455 9.5555 5.87593 9.62574 5.7509 9.75076C5.62588 9.87579 5.55564 10.0454 5.55564 10.2222C5.55564 10.399 5.62588 10.5686 5.7509 10.6936C5.87593 10.8186 6.0455 10.8888 6.22231 10.8888H9.77788C9.95469 10.8888 10.1243 10.8186 10.2493 10.6936C10.3743 10.5686 10.4446 10.399 10.4446 10.2222C10.4446 10.0454 10.3743 9.87579 10.2493 9.75076C10.1243 9.62574 9.95469 9.5555 9.77788 9.5555H6.22231ZM6.22231 14.8889C6.0455 14.8889 5.87593 14.9591 5.7509 15.0841C5.62588 15.2091 5.55564 15.3787 5.55564 15.5555C5.55564 15.7323 5.62588 15.9019 5.7509 16.0269C5.87593 16.152 6.0455 16.2222 6.22231 16.2222H9.77788C9.95469 16.2222 10.1243 16.152 10.2493 16.0269C10.3743 15.9019 10.4446 15.7323 10.4446 15.5555C10.4446 15.3787 10.3743 15.2091 10.2493 15.0841C10.1243 14.9591 9.95469 14.8889 9.77788 14.8889H6.22231ZM5.55564 18.2222C5.55564 18.0454 5.62588 17.8758 5.7509 17.7508C5.87593 17.6258 6.0455 17.5555 6.22231 17.5555H18.6668C18.8436 17.5555 19.0132 17.6258 19.1382 17.7508C19.2632 17.8758 19.3335 18.0454 19.3335 18.2222C19.3335 18.399 19.2632 18.5686 19.1382 18.6936C19.0132 18.8186 18.8436 18.8889 18.6668 18.8889H6.22231C6.0455 18.8889 5.87593 18.8186 5.7509 18.6936C5.62588 18.5686 5.55564 18.399 5.55564 18.2222ZM6.22231 12.2222C6.0455 12.2222 5.87593 12.2924 5.7509 12.4174C5.62588 12.5425 5.55564 12.712 5.55564 12.8888C5.55564 13.0657 5.62588 13.2352 5.7509 13.3603C5.87593 13.4853 6.0455 13.5555 6.22231 13.5555H9.77788C9.95469 13.5555 10.1243 13.4853 10.2493 13.3603C10.3743 13.2352 10.4446 13.0657 10.4446 12.8888C10.4446 12.712 10.3743 12.5425 10.2493 12.4174C10.1243 12.2924 9.95469 12.2222 9.77788 12.2222H6.22231ZM15.5557 16.2222C14.6757 16.2222 14.0059 16.1955 13.5255 16.1644C13.2008 16.147 12.894 16.0102 12.664 15.7804C12.4341 15.5505 12.2972 15.2438 12.2797 14.9191C12.2391 14.2431 12.22 13.566 12.2223 12.8888C12.2223 12.0088 12.249 11.3391 12.2801 10.8586C12.2975 10.5339 12.4343 10.2271 12.6642 9.99719C12.894 9.76723 13.2008 9.63035 13.5255 9.61283C14.0059 9.58172 14.6752 9.5555 15.5557 9.5555C16.4361 9.5555 17.1055 9.58217 17.5859 9.61328C17.9106 9.63067 18.2174 9.76745 18.4473 9.99732C18.6773 10.2272 18.8142 10.5339 18.8317 10.8586C18.8628 11.3391 18.889 12.0084 18.889 12.8888C18.889 13.7693 18.8624 14.4386 18.8313 14.9191C18.8139 15.2438 18.6771 15.5506 18.4472 15.7805C18.2173 16.0105 17.9106 16.1473 17.5859 16.1649C17.1055 16.196 16.4361 16.2222 15.5557 16.2222Z" fill="black" style="fill:black;fill-opacity:1;"/>
</svg>
