<svg width="24" height="24" viewBox="0 0 24 24" fill="none" xmlns="http://www.w3.org/2000/svg">
<path fill-rule="evenodd" clip-rule="evenodd" d="M6.02462 4.44968C6.02462 4.2743 6.15276 4.15641 6.28359 4.15641H17.7191C17.8499 4.15641 17.9781 4.2743 17.9781 4.44968V9.36055H6.02597L6.02462 4.44968ZM6.28225 2C5.00894 2 4 3.10983 4 4.44968V19.5503C4 20.8887 5.00894 22 6.28225 22H17.7178C18.9911 22 20 20.8902 20 19.5503V4.44968C20 3.10983 18.9911 2 17.7178 2H6.28225ZM7.72281 14.4712C7.99111 14.4712 8.24843 14.3577 8.43815 14.1554C8.62786 13.9532 8.73445 13.679 8.73445 13.393C8.73445 13.1071 8.62786 12.8328 8.43815 12.6306C8.24843 12.4284 7.99111 12.3148 7.72281 12.3148C7.45451 12.3148 7.1972 12.4284 7.00748 12.6306C6.81776 12.8328 6.71118 13.1071 6.71118 13.393C6.71118 13.679 6.81776 13.9532 7.00748 14.1554C7.1972 14.3577 7.45451 14.4712 7.72281 14.4712ZM12.0013 14.4727C12.2697 14.4727 12.527 14.3591 12.7167 14.1569C12.9064 13.9547 13.013 13.6804 13.013 13.3945C13.013 13.1085 12.9064 12.8343 12.7167 12.6321C12.527 12.4299 12.2697 12.3163 12.0013 12.3163C11.733 12.3163 11.4757 12.4299 11.286 12.6321C11.0963 12.8343 10.9897 13.1085 10.9897 13.3945C10.9897 13.6804 11.0963 13.9547 11.286 14.1569C11.4757 14.3591 11.733 14.4727 12.0013 14.4727ZM17.2888 13.3945C17.2888 13.6804 17.1822 13.9547 16.9925 14.1569C16.8028 14.3591 16.5455 14.4727 16.2772 14.4727C16.0089 14.4727 15.7516 14.3591 15.5619 14.1569C15.3721 13.9547 15.2656 13.6804 15.2656 13.3945C15.2656 13.1085 15.3721 12.8343 15.5619 12.6321C15.7516 12.4299 16.0089 12.3163 16.2772 12.3163C16.5455 12.3163 16.8028 12.4299 16.9925 12.6321C17.1822 12.8343 17.2888 13.1085 17.2888 13.3945ZM7.72551 19.1075C7.99381 19.1075 8.25112 18.9939 8.44084 18.7917C8.63056 18.5895 8.73714 18.3153 8.73714 18.0293C8.73714 17.7434 8.63056 17.4691 8.44084 17.2669C8.25112 17.0647 7.99381 16.9511 7.72551 16.9511C7.45721 16.9511 7.19989 17.0647 7.01018 17.2669C6.82046 17.4691 6.71388 17.7434 6.71388 18.0293C6.71388 18.3153 6.82046 18.5895 7.01018 18.7917C7.19989 18.9939 7.45721 19.1075 7.72551 19.1075ZM13.0143 18.0293C13.0143 18.3153 12.9077 18.5895 12.718 18.7917C12.5283 18.9939 12.271 19.1075 12.0027 19.1075C11.7344 19.1075 11.4771 18.9939 11.2874 18.7917C11.0976 18.5895 10.9911 18.3153 10.9911 18.0293C10.9911 17.7434 11.0976 17.4691 11.2874 17.2669C11.4771 17.0647 11.7344 16.9511 12.0027 16.9511C12.271 16.9511 12.5283 17.0647 12.718 17.2669C12.9077 17.4691 13.0143 17.7434 13.0143 18.0293ZM16.2785 19.1075C16.5468 19.1075 16.8042 18.9939 16.9939 18.7917C17.1836 18.5895 17.2902 18.3153 17.2902 18.0293C17.2902 17.7434 17.1836 17.4691 16.9939 17.2669C16.8042 17.0647 16.5468 16.9511 16.2785 16.9511C16.0102 16.9511 15.7529 17.0647 15.5632 17.2669C15.3735 17.4691 15.2669 17.7434 15.2669 18.0293C15.2669 18.3153 15.3735 18.5895 15.5632 18.7917C15.7529 18.9939 16.0102 19.1075 16.2785 19.1075ZM13.9774 5.96492C13.7538 5.96492 13.5394 6.05959 13.3813 6.22809C13.2232 6.39659 13.1344 6.62513 13.1344 6.86343C13.1344 7.10173 13.2232 7.33026 13.3813 7.49877C13.5394 7.66727 13.7538 7.76193 13.9774 7.76193H15.8914C16.115 7.76193 16.3294 7.66727 16.4875 7.49877C16.6456 7.33026 16.7344 7.10173 16.7344 6.86343C16.7344 6.62513 16.6456 6.39659 16.4875 6.22809C16.3294 6.05959 16.115 5.96492 15.8914 5.96492H13.9774Z" fill="black" style="fill:black;fill-opacity:1;"/>
</svg>
