<svg width="24" height="24" viewBox="0 0 24 24" fill="none" xmlns="http://www.w3.org/2000/svg">
<path fill-rule="evenodd" clip-rule="evenodd" d="M9.20736 15.059C9.43409 15.0882 9.64578 15.1015 9.84373 15.1015C11.9043 15.1015 12.4751 13.6403 12.7026 13.0576L12.7029 13.0569C13.1459 11.9199 13.5138 9.8671 13.6523 9.07867C13.7993 8.20234 13.6039 7.40439 13.1028 6.83148C12.6448 6.30812 11.9594 6.00109 11.1721 6.00109H8.92367C8.92367 6.00109 9.12195 5.21635 9.27125 4.63482C9.76428 2.71426 8.66872 2.02585 7.10858 2.10807L4.83205 6.36385L2 7.95118V13.8015L9.20736 15.059ZM10.8973 17.1807C10.6802 16.9326 10.5205 16.6421 10.4212 16.3215C11.55 16.2392 12.3646 15.7889 12.9308 15.2102C13.5139 14.6143 13.7797 13.9329 13.9014 13.621L13.9089 13.6016C14.3957 12.3524 14.7816 10.2079 14.9251 9.39015L14.9275 9.38209L14.9374 9.32298C14.9563 9.21051 14.9709 9.09821 14.9812 8.98609L22.0001 10.2107V16.061L19.1681 17.6484L16.8915 21.9041C15.3313 21.9864 14.2358 21.2979 14.7288 19.3774C14.8454 18.9221 14.9613 18.4667 15.0764 18.0111H12.828C12.0407 18.0111 11.3553 17.7041 10.8973 17.1807Z" fill="black" style="fill:black;fill-opacity:1;"/>
</svg>
