<svg width="64" height="64" viewBox="0 0 64 64" fill="none" xmlns="http://www.w3.org/2000/svg">
<path d="M32 45C31.6479 45 31.1198 44.8919 30.5477 44.589C18.2469 37.7757 14 34.9205 14 27.1554V10.8466C14 8.61871 14.9902 7.8833 16.8166 7.14789C19.3912 6.13129 27.621 3.12475 30.1956 2.30282C30.7677 2.12978 31.3839 2 32 2C32.6161 2 33.2323 2.10815 33.8264 2.30282C36.379 3.16801 44.6088 6.10966 47.1834 7.14789C49.0318 7.90493 50 8.61871 50 10.8466V27.1554C50 34.9205 45.9731 38.1434 33.4523 44.589C32.9022 44.8702 32.3521 45 32 45ZM23.8362 31.5246C23.8362 33.1901 24.5844 33.9688 26.1467 33.9688H37.8973C39.4597 33.9688 40.2078 33.1901 40.2078 31.5246V22.6564C40.2078 21.0775 39.5477 20.2988 38.2274 20.2123V17.5951C38.2274 13.4854 35.7188 10.7168 32.022 10.7168C28.3252 10.7168 25.8166 13.4854 25.8166 17.5951V20.2123C24.4963 20.2988 23.8362 21.0775 23.8362 22.6564V31.5246ZM28.1932 20.1906V17.3355C28.1932 14.7183 29.7335 12.9879 32.022 12.9879C34.3105 12.9879 35.8509 14.7183 35.8509 17.3355V20.1906H28.1932Z" fill="#111827" style="fill:#111827;fill:color(display-p3 0.0667 0.0941 0.1529);fill-opacity:1;"/>
<path d="M16.0032 62C15.3004 62 14.9006 61.6243 14.907 60.9593C14.907 60.873 14.9135 60.756 14.9264 60.6267L15.1521 56.8825L12.0054 58.8593C11.7023 59.0687 11.3864 59.1672 11.0639 59.1672C10.4514 59.1672 10 58.73 10 58.1265C10 57.6523 10.245 57.3136 10.7351 57.1042L14.2429 55.4969L10.7351 53.8958C10.245 53.6864 10 53.3415 10 52.8735C10 52.27 10.4514 51.8266 11.0639 51.8266C11.3864 51.8266 11.7023 51.9313 12.0054 52.1407L15.1521 54.1175L14.9264 50.3671C14.9135 50.2378 14.907 50.127 14.907 50.0407C14.9006 49.3757 15.3004 49 16.0032 49C16.7061 49 17.1059 49.3757 17.0994 50.0407C17.0994 50.127 17.0865 50.2378 17.0801 50.3671L16.8544 54.1175L19.9946 52.1407C20.2977 51.9313 20.6136 51.8266 20.9361 51.8266C21.5551 51.8266 22 52.2762 22 52.8735C22 53.3415 21.755 53.6864 21.2649 53.8958L17.7636 55.4969L21.2649 57.1042C21.755 57.3136 22 57.6523 22 58.1265C22 58.73 21.5551 59.1672 20.9361 59.1672C20.6136 59.1672 20.2977 59.0687 19.9946 58.8593L16.8544 56.8825L17.0801 60.6267C17.0865 60.756 17.0994 60.873 17.0994 60.9593C17.1059 61.6243 16.7061 62 16.0032 62Z" fill="#111827" style="fill:#111827;fill:color(display-p3 0.0667 0.0941 0.1529);fill-opacity:1;"/>
<path d="M32.0032 62C31.3004 62 30.9006 61.6243 30.907 60.9593C30.907 60.873 30.9135 60.756 30.9264 60.6267L31.1521 56.8825L28.0054 58.8593C27.7023 59.0687 27.3864 59.1672 27.0639 59.1672C26.4514 59.1672 26 58.73 26 58.1265C26 57.6523 26.245 57.3136 26.7351 57.1042L30.2429 55.4969L26.7351 53.8958C26.245 53.6864 26 53.3415 26 52.8735C26 52.27 26.4514 51.8266 27.0639 51.8266C27.3864 51.8266 27.7023 51.9313 28.0054 52.1407L31.1521 54.1175L30.9264 50.3671C30.9135 50.2378 30.907 50.127 30.907 50.0407C30.9006 49.3757 31.3004 49 32.0032 49C32.7061 49 33.1059 49.3757 33.0994 50.0407C33.0994 50.127 33.0865 50.2378 33.0801 50.3671L32.8544 54.1175L35.9946 52.1407C36.2977 51.9313 36.6136 51.8266 36.9361 51.8266C37.5551 51.8266 38 52.2762 38 52.8735C38 53.3415 37.755 53.6864 37.2649 53.8958L33.7636 55.4969L37.2649 57.1042C37.755 57.3136 38 57.6523 38 58.1265C38 58.73 37.5551 59.1672 36.9361 59.1672C36.6136 59.1672 36.2977 59.0687 35.9946 58.8593L32.8544 56.8825L33.0801 60.6267C33.0865 60.756 33.0994 60.873 33.0994 60.9593C33.1059 61.6243 32.7061 62 32.0032 62Z" fill="#111827" style="fill:#111827;fill:color(display-p3 0.0667 0.0941 0.1529);fill-opacity:1;"/>
<path d="M48.0032 62C47.3004 62 46.9006 61.6243 46.907 60.9593C46.907 60.873 46.9135 60.756 46.9264 60.6267L47.1521 56.8825L44.0054 58.8593C43.7023 59.0687 43.3864 59.1672 43.0639 59.1672C42.4514 59.1672 42 58.73 42 58.1265C42 57.6523 42.245 57.3136 42.7351 57.1042L46.2429 55.4969L42.7351 53.8958C42.245 53.6864 42 53.3415 42 52.8735C42 52.27 42.4514 51.8266 43.0639 51.8266C43.3864 51.8266 43.7023 51.9313 44.0054 52.1407L47.1521 54.1175L46.9264 50.3671C46.9135 50.2378 46.907 50.127 46.907 50.0407C46.9006 49.3757 47.3004 49 48.0032 49C48.7061 49 49.1059 49.3757 49.0994 50.0407C49.0994 50.127 49.0865 50.2378 49.0801 50.3671L48.8544 54.1175L51.9946 52.1407C52.2977 51.9313 52.6136 51.8266 52.9361 51.8266C53.5551 51.8266 54 52.2762 54 52.8735C54 53.3415 53.755 53.6864 53.2649 53.8958L49.7636 55.4969L53.2649 57.1042C53.755 57.3136 54 57.6523 54 58.1265C54 58.73 53.5551 59.1672 52.9361 59.1672C52.6136 59.1672 52.2977 59.0687 51.9946 58.8593L48.8544 56.8825L49.0801 60.6267C49.0865 60.756 49.0994 60.873 49.0994 60.9593C49.1059 61.6243 48.7061 62 48.0032 62Z" fill="#111827" style="fill:#111827;fill:color(display-p3 0.0667 0.0941 0.1529);fill-opacity:1;"/>
</svg>
