<svg width="15" height="15" viewBox="0 0 15 15" fill="none" xmlns="http://www.w3.org/2000/svg">
<path d="M7.1435 13.5096C3.66304 13.5096 0.835938 10.6825 0.835938 7.20209C0.835938 3.72164 3.66304 0.894531 7.1435 0.894531C10.6239 0.894531 13.4511 3.72164 13.4511 7.20209C13.4511 10.6825 10.6239 13.5096 7.1435 13.5096ZM7.10686 5.11382C7.58924 5.11382 7.97392 4.72303 7.97392 4.24065C7.97392 3.74606 7.58924 3.36138 7.10686 3.36138C6.62448 3.36138 6.23369 3.74606 6.23369 4.24065C6.23369 4.72303 6.62448 5.11382 7.10686 5.11382ZM6.01998 10.7192H8.59674C8.88372 10.7192 9.10965 10.5116 9.10965 10.2185C9.10965 9.94982 8.88372 9.73 8.59674 9.73H7.89454V6.73192C7.89454 6.34724 7.69915 6.09689 7.33889 6.09689H6.136C5.84901 6.09689 5.62919 6.31671 5.62919 6.58538C5.62919 6.87847 5.84901 7.08607 6.136 7.08607H6.77713V9.73H6.01998C5.733 9.73 5.51318 9.94982 5.51318 10.2185C5.51318 10.5116 5.733 10.7192 6.01998 10.7192Z" fill="black" style="fill:black;fill-opacity:1;"/>
</svg>
