<svg width="16" height="16" viewBox="0 0 16 16" fill="none" xmlns="http://www.w3.org/2000/svg">
<path d="M12.0328 8.86654V3.79987C12.0318 3.46424 11.898 3.14264 11.6607 2.90531C11.4234 2.66798 11.1018 2.53421 10.7661 2.5332H1.89948C1.56385 2.53421 1.24225 2.66798 1.00492 2.90531C0.767589 3.14264 0.633815 3.46424 0.632812 3.79987V8.86654C0.633815 9.20217 0.767589 9.52377 1.00492 9.7611C1.24225 9.99843 1.56385 10.1322 1.89948 10.1332H10.7661C11.1018 10.1322 11.4234 9.99843 11.6607 9.7611C11.898 9.52377 12.0318 9.20217 12.0328 8.86654ZM6.33281 8.2332C5.95703 8.2332 5.58968 8.12177 5.27723 7.913C4.96478 7.70422 4.72125 7.40748 4.57744 7.0603C4.43363 6.71312 4.39601 6.3311 4.46932 5.96253C4.54263 5.59397 4.72359 5.25542 4.98931 4.9897C5.25503 4.72398 5.59358 4.54302 5.96214 4.46971C6.3307 4.3964 6.71273 4.43403 7.05991 4.57783C7.40709 4.72164 7.70383 4.96517 7.9126 5.27762C8.12138 5.59007 8.23281 5.95742 8.23281 6.3332C8.23281 6.83711 8.03263 7.32039 7.67632 7.67671C7.32 8.03303 6.83672 8.2332 6.33281 8.2332ZM14.5661 4.4332V11.3999C14.5651 11.7355 14.4314 12.0571 14.194 12.2944C13.9567 12.5318 13.6351 12.6655 13.2995 12.6665H2.53281V11.3999H13.2995V4.4332H14.5661Z" fill="white" style="fill:white;fill-opacity:1;"/>
</svg>
