<svg width="24" height="24" viewBox="0 0 24 24" fill="none" xmlns="http://www.w3.org/2000/svg">
<path d="M21.6004 4.20044C21.6004 3.78419 21.3866 3.39794 21.0304 3.18044C20.6741 2.96294 20.2354 2.94044 19.8641 3.12794L15.5066 5.30669L8.77914 3.06044C8.47539 2.95919 8.14914 2.98169 7.86414 3.12419L3.06414 5.52419C2.65539 5.73044 2.40039 6.14669 2.40039 6.60044V19.8004C2.40039 20.2167 2.61414 20.6029 2.97039 20.8204C3.32664 21.0379 3.76539 21.0604 4.13664 20.8729L8.49039 18.6942L14.9891 20.8617C14.8279 20.6217 14.6704 20.3704 14.5166 20.1154C14.1041 19.4292 13.6954 18.6417 13.3916 17.7979L9.59664 16.5342V5.86544L14.3966 7.46669V11.1904C15.5591 9.84794 17.2841 9.00044 19.1966 9.00044C20.0441 9.00044 20.8541 9.16544 21.5966 9.46919L21.6004 4.20044ZM14.7004 15.2217C14.7004 17.8054 17.1041 20.8617 18.3979 22.3204C18.8329 22.8079 19.5716 22.8079 20.0066 22.3204C21.3004 20.8617 23.7041 17.8054 23.7041 15.2217C23.7041 12.7804 21.6904 10.8004 19.2041 10.8004C16.7179 10.8004 14.7004 12.7804 14.7004 15.2217Z" fill="black" style="fill:black;fill-opacity:1;"/>
</svg>
