<svg width="24" height="24" viewBox="0 0 24 24" fill="none" xmlns="http://www.w3.org/2000/svg">
<path d="M3.33594 13.2927C3.33594 8.50342 7.21118 4.62817 12.0005 4.62817C12.3147 4.62817 12.6194 4.66626 12.886 4.71387L10.9912 2.88574C10.7817 2.67627 10.658 2.41919 10.658 2.08594C10.658 1.40991 11.1816 0.867188 11.8386 0.867188C12.1719 0.867188 12.448 0.990967 12.667 1.21948L16.5518 5.18042C16.7993 5.42798 16.9421 5.73267 16.9421 6.06592C16.9421 6.40869 16.8184 6.69434 16.5518 6.95142L12.667 10.8933C12.448 11.1028 12.1814 11.217 11.8481 11.217C11.1816 11.217 10.658 10.6934 10.658 10.0269C10.658 9.6936 10.7817 9.44604 10.9912 9.23657L13.0859 7.17041C12.7717 7.10376 12.4004 7.0752 12.0005 7.0752C8.57275 7.0752 5.78296 9.85547 5.78296 13.2927C5.78296 16.7205 8.57275 19.5007 12.0005 19.5007C15.4282 19.5007 18.218 16.7205 18.218 13.2927C18.218 12.5405 18.7131 12.0264 19.4177 12.0264C20.1414 12.0264 20.665 12.5405 20.665 13.2927C20.665 18.082 16.7898 21.9573 12.0005 21.9573C7.21118 21.9573 3.33594 18.082 3.33594 13.2927Z" fill="#171717" style="fill:#171717;fill:color(display-p3 0.0902 0.0902 0.0902);fill-opacity:1;"/>
</svg>
