<svg width="24" height="24" viewBox="0 0 24 24" fill="none" xmlns="http://www.w3.org/2000/svg">
<path d="M0.761719 20.9673V3.43311C0.761719 2.86914 1.19238 2.41797 1.7666 2.41797C2.34082 2.41797 2.77148 2.86914 2.77148 3.43311V12.3335L5.79639 9.26758C6.29883 8.75488 6.75 8.5498 7.2627 8.5498C7.77539 8.5498 8.26758 8.77539 8.73926 9.26758L12.3999 13.0513C12.4922 13.1436 12.5845 13.1948 12.6768 13.1948C12.7588 13.1948 12.8613 13.1436 12.9434 13.0513L16.9321 9.00098L15.3325 7.39111C14.8916 6.9502 15.1582 6.36572 15.7734 6.20166L21.7925 4.66357C22.3564 4.52002 22.8589 5.00195 22.7051 5.56592L21.167 11.6055C21.0029 12.2207 20.3979 12.4771 19.9673 12.0464L18.3574 10.4263L14.1431 14.6611C13.6509 15.1431 13.1792 15.3687 12.6665 15.3687C12.1538 15.3687 11.6616 15.1533 11.2002 14.6509L7.53955 10.8672C7.44727 10.7749 7.34473 10.7339 7.2627 10.7339C7.18066 10.7339 7.07812 10.7749 6.99609 10.8672L2.77148 15.2046V19.5522C2.77148 19.7676 2.84326 19.8394 3.05859 19.8394H22.1821C22.7461 19.8394 23.1973 20.27 23.1973 20.8442C23.1973 21.4185 22.7461 21.8491 22.1821 21.8491H1.64355C1.11035 21.8491 0.761719 21.5005 0.761719 20.9673Z" fill="#171717" style="fill:#171717;fill:color(display-p3 0.0902 0.0902 0.0902);fill-opacity:1;"/>
</svg>
